# Blender v2.79 (sub 0) OBJ File: ''
# www.blender.org
o Parallelogram.001
v 0.600000 0.100000 -0.200000
v 0.400000 0.000000 0.000000
v 0.400000 0.100000 0.000000
v 0.000000 0.000000 0.000000
v 0.200000 0.100000 -0.200000
v 0.000000 0.100000 0.000000
v 0.200000 0.000000 -0.200000
v 0.600000 0.000000 -0.200000
vt 0.000000 1.000000
vt 0.000000 0.500000
vt 1.000000 0.500000
vt 0.000000 1.000000
vt 0.000000 0.000000
vt 1.000000 0.000000
vt 0.500000 0.500000
vt 0.000000 0.000000
vt 1.000000 0.000000
vt 0.000000 0.000000
vt 0.000000 0.000000
vt 1.000000 0.000000
vt 1.000000 0.500000
vt 1.000000 0.000000
vt 1.000000 1.000000
vt 1.000000 1.000000
vt 1.000000 1.000000
vt 1.000000 1.000000
vn 0.7071 -0.0000 0.7071
vn -0.7071 0.0000 -0.7071
vn 0.0000 -1.0000 -0.0000
vn 0.0000 0.0000 -1.0000
vn 0.0000 1.0000 0.0000
vn 0.0000 -0.0000 1.0000
s off
f 1/1/1 3/2/1 2/3/1
f 4/4/2 6/5/2 5/6/2
f 2/7/3 4/8/3 7/9/3
f 1/1/4 8/10/4 7/9/4
f 5/11/5 6/12/5 3/13/5
f 3/2/6 6/5/6 4/14/6
f 1/1/1 2/3/1 8/15/1
f 4/4/2 5/6/2 7/16/2
f 2/7/3 7/9/3 8/15/3
f 1/1/4 7/9/4 5/17/4
f 5/11/5 3/13/5 1/18/5
f 3/2/6 4/14/6 2/3/6
