# Blender v2.79 (sub 0) OBJ File: ''
# www.blender.org
o Triangle
v -0.200000 0.050000 0.066667
v 0.200000 -0.050000 0.066667
v 0.200000 0.050000 0.066667
v -0.000000 0.050000 -0.133333
v -0.200000 -0.050000 0.066667
v -0.000000 -0.050000 -0.133333
vt 0.000000 0.000000
vt 1.000000 0.000000
vt 1.000000 1.000000
vt 0.000000 0.000000
vt 1.000000 0.000000
vt 1.000000 0.000000
vt 1.000000 1.000000
vt 1.000000 0.000000
vt 1.000000 1.000000
vt 0.000000 0.000000
vt 1.000000 0.000000
vt 1.000000 1.000000
vt 1.000000 1.000000
vn 0.0000 -0.0000 1.0000
vn 0.7071 0.0000 -0.7071
vn 0.0000 -1.0000 -0.0000
vn -0.7071 0.0000 -0.7071
vn 0.0000 1.0000 0.0000
s 1
f 1/1/1 2/2/1 3/3/1
f 2/4/2 4/5/2 3/3/2
f 2/4/3 5/6/3 6/7/3
f 1/1/4 6/8/4 5/9/4
f 4/10/5 1/11/5 3/3/5
f 1/1/1 5/6/1 2/12/1
f 2/4/2 6/8/2 4/13/2
f 1/1/4 4/5/4 6/7/4
